<svg width="22" height="25" viewBox="0 0 22 25" fill="none" xmlns="http://www.w3.org/2000/svg">
<g clip-path="url(#clip0)">
<path d="M15.0021 16.0943C16.9386 17.3108 17.8075 19.4707 17.8075 19.4707C17.8075 19.4707 15.5731 19.6445 13.6615 18.428C11.7499 17.2115 10.4838 15.6971 10.8562 15.0516C11.2037 14.431 13.0657 14.8779 15.0021 16.0943Z" fill="black"/>
<path d="M15.1789 9.04127C17.9195 7.55362 21.0001 8.09673 21.0001 8.09673C21.0001 8.09673 19.6404 11.0484 16.8997 12.5361C14.1591 14.0237 11.5671 14.4488 11.0785 13.4806C10.5898 12.5125 12.4382 10.5289 15.1789 9.04127Z" fill="black"/>
<path d="M15.1193 3.27707L11.2712 11.569C10.452 13.3565 9.78167 15.2185 9.30997 17.1053L7.49766 24.429C7.49766 24.429 7.32388 25.1986 6.43013 24.9255C5.53639 24.6524 3.50064 24.007 3.50064 24.007C3.50064 24.007 1.48972 23.3615 0.595972 23.0884C-0.297772 22.8153 0.0746214 22.0953 0.0746214 22.0953L3.35168 15.2433C4.19577 13.4806 4.89091 11.6187 5.36261 9.73188L7.67144 0.943402C8.11832 -0.297909 8.98723 0.0248319 8.98723 0.0248319L11.8174 0.918576L14.6476 1.81232C14.6476 1.81232 15.5662 2.03576 15.1193 3.27707Z" fill="black"/>
</g>
<defs>
<clipPath id="clip0">
<rect width="21.425" height="25" fill="white" transform="translate(0.00012207)"/>
</clipPath>
</defs>
</svg>
