<svg width="25" height="25" viewBox="0 0 25 25" fill="none" xmlns="http://www.w3.org/2000/svg">
<g clip-path="url(#clip0)">
<path d="M12.5001 6.56853L3.584 13.9189C3.584 13.9293 3.58139 13.9446 3.57618 13.9654C3.57108 13.986 3.56836 14.001 3.56836 14.0117V21.4547C3.56836 21.7235 3.66661 21.9564 3.86306 22.1525C4.05945 22.3487 4.29202 22.4475 4.56081 22.4475H10.5151V16.4928H14.4852V22.4477H20.4394C20.7082 22.4477 20.9411 22.3492 21.1372 22.1525C21.3336 21.9566 21.4322 21.7235 21.4322 21.4547V14.0117C21.4322 13.9704 21.4266 13.9392 21.4166 13.9189L12.5001 6.56853Z" fill="black"/>
<path d="M24.8276 12.2442L21.4319 9.42198V3.09523C21.4319 2.95059 21.3854 2.83165 21.2921 2.73855C21.1996 2.64557 21.0806 2.59908 20.9357 2.59908H17.9585C17.8137 2.59908 17.6948 2.64557 17.6016 2.73855C17.5087 2.83165 17.4623 2.95064 17.4623 3.09523V6.11899L13.6787 2.95553C13.3483 2.68674 12.9554 2.55237 12.5005 2.55237C12.0456 2.55237 11.6528 2.68674 11.322 2.95553L0.172432 12.2442C0.0690751 12.3267 0.012427 12.4379 0.00189035 12.5775C-0.00859198 12.7169 0.0275259 12.8388 0.110353 12.9421L1.07174 14.0896C1.15457 14.1826 1.26297 14.2394 1.3974 14.2602C1.5215 14.2707 1.64561 14.2344 1.76971 14.1517L12.5001 5.20409L23.2307 14.1517C23.3136 14.2238 23.4219 14.2598 23.5563 14.2598H23.6029C23.7372 14.2394 23.8453 14.1821 23.9286 14.0894L24.8901 12.942C24.9728 12.8385 25.009 12.7169 24.9982 12.5772C24.9876 12.438 24.9308 12.3269 24.8276 12.2442Z" fill="black"/>
</g>
<defs>
<clipPath id="clip0">
<rect width="25" height="25" fill="white" transform="translate(0.00012207)"/>
</clipPath>
</defs>
</svg>
