<svg width="25" height="25" viewBox="0 0 25 25" fill="none" xmlns="http://www.w3.org/2000/svg">
<path d="M21.3397 3.66102C16.458 -1.22007 8.54319 -1.22061 3.66102 3.66102C-1.22061 8.54264 -1.22007 16.4575 3.66102 21.3397C8.54264 26.2202 16.4575 26.2207 21.3397 21.3397C26.2207 16.4575 26.2202 8.54319 21.3397 3.66102ZM14.1303 17.9352C14.1303 18.8358 13.4004 19.5657 12.4998 19.5657C11.5992 19.5657 10.8693 18.8358 10.8693 17.9352V11.4134C10.8693 10.5128 11.5992 9.78289 12.4998 9.78289C13.4004 9.78289 14.1303 10.5128 14.1303 11.4134V17.9352ZM12.471 8.62634C11.5318 8.62634 10.9057 7.96111 10.9253 7.1399C10.9057 6.27901 11.5318 5.63389 12.49 5.63389C13.4487 5.63389 14.0553 6.27955 14.0754 7.1399C14.0748 7.96111 13.4493 8.62634 12.471 8.62634Z" fill="black"/>
</svg>
