<svg width="68" height="71" viewBox="0 0 68 71" fill="none" xmlns="http://www.w3.org/2000/svg">
<g clip-path="url(#clip0)">
<path d="M57.7756 35.9771C57.7756 51.9504 44.9257 64.5514 29.0916 64.5514C13.2576 64.5514 0.424011 51.9504 0.424011 35.9771C0.424011 20.0037 13.2576 7.04077 29.0916 7.04077C44.9257 7.04077 57.7756 19.9873 57.7756 35.9771Z" fill="white"/>
<path d="M5.59326 8.45551C6.76736 4.88577 9.00141 2.07275 12.6216 0.592209C17.5626 -1.41474 21.5741 1.80954 20.8729 7.12302C20.7587 7.94555 20.4163 8.48841 19.5683 8.78452C15.4427 10.1993 11.8225 12.4694 8.7242 15.595C7.43595 16.8946 6.21292 16.6314 5.4628 14.9205C4.54961 12.7984 4.94098 10.6928 5.59326 8.45551Z" fill="black"/>
<path d="M61.4446 20.4643C61.8686 16.7136 61.0206 13.2261 58.3463 10.3473C54.6935 6.43211 49.7199 7.63299 48.1381 12.7491C47.8935 13.5551 47.9751 14.1803 48.6273 14.8054C51.7909 17.8487 54.1065 21.4513 55.623 25.5968C56.259 27.3241 57.4657 27.6038 58.8518 26.37C60.564 24.8401 61.1021 22.7509 61.4446 20.4643Z" fill="black"/>
<path d="M33.788 38.9875C33.3477 40.32 29.8743 41.1589 28.5698 40.9122C27.2652 40.6654 24.33 38.5762 24.4278 37.1779C24.5256 35.829 25.9117 34.9242 29.5808 35.6316C33.2825 36.3389 34.212 37.6879 33.788 38.9875Z" fill="#231F20"/>
<path d="M19.2384 35.0012C19.5029 33.7669 17.7978 32.3477 15.4299 31.8313C13.062 31.3149 10.928 31.8968 10.6635 33.1312C10.399 34.3655 12.1041 35.7847 14.472 36.3011C16.8399 36.8175 18.9739 36.2356 19.2384 35.0012Z" fill="#FDFFFF"/>
<path d="M32.6465 47.6568C30.0863 47.6568 28.048 44.3174 27.6403 43.1494C27.5261 42.8533 27.6892 42.5243 27.9827 42.4092C28.2763 42.294 28.6024 42.4585 28.7165 42.7546C29.1079 43.8568 30.8691 46.5711 32.7281 46.5053C33.5108 46.4724 35.435 46.127 36.2014 43.6429C36.2993 43.3468 36.6091 43.1659 36.9189 43.2646C37.2125 43.3633 37.3918 43.6758 37.294 43.9884C36.2667 47.262 33.576 47.6239 32.777 47.6568C32.7281 47.6568 32.6791 47.6568 32.6465 47.6568Z" fill="black"/>
<path d="M23.482 45.946C23.0417 45.946 22.6177 45.8637 22.2101 45.6992C21.4762 45.3867 19.0791 44.0706 19.2911 40.6325C19.3074 40.32 19.5846 40.0732 19.8945 40.0896C20.2043 40.1061 20.4489 40.3858 20.4326 40.6983C20.2695 43.3139 21.9328 44.3174 22.6667 44.6299C24.3626 45.3702 26.988 43.462 27.7381 42.5737C27.9501 42.3269 28.3089 42.3104 28.5372 42.5079C28.7818 42.7217 28.7981 43.0836 28.6024 43.3139C27.9175 44.12 25.6182 45.946 23.482 45.946Z" fill="black"/>
<path d="M47.6736 41.0083C47.9252 39.7712 46.2053 38.3701 43.8321 37.8789C41.4589 37.3876 39.331 37.9923 39.0794 39.2294C38.8278 40.4665 40.5477 41.8676 42.9209 42.3588C45.2941 42.85 47.4219 42.2454 47.6736 41.0083Z" fill="#FDFFFF"/>
<path d="M12.4422 25.5475C14.448 23.0799 17.4811 21.2046 21.3621 21.1388C25.5204 21.073 27.999 24.7743 26.4499 28.5086C25.6672 30.4004 23.4005 31.7657 21.248 31.4038C19.3401 31.0913 17.4974 31.1735 15.6384 31.6341C14.0892 32.0125 12.8173 31.5519 11.9041 30.2359C11.0561 29.0021 11.1377 27.538 12.4422 25.5475Z" fill="black"/>
<path d="M22.5852 27.6696C23.3777 27.6696 24.0202 27.0215 24.0202 26.222C24.0202 25.4224 23.3777 24.7743 22.5852 24.7743C21.7926 24.7743 21.1501 25.4224 21.1501 26.222C21.1501 27.0215 21.7926 27.6696 22.5852 27.6696Z" fill="white"/>
<path d="M49.0839 33.3285C48.236 30.2523 46.2139 27.3077 42.6753 25.6626C38.9084 23.9024 35.1415 26.2713 35.0763 30.3345C35.0436 32.3908 36.5765 34.5458 38.6801 35.1052C40.5554 35.5987 42.2024 36.4212 43.7189 37.6056C44.9746 38.5762 46.3281 38.6749 47.6978 37.8524C48.9698 37.0628 49.4916 35.6809 49.0839 33.3285Z" fill="black"/>
<path d="M39.5443 31.2722C40.3369 31.2722 40.9793 30.6241 40.9793 29.8246C40.9793 29.0251 40.3369 28.377 39.5443 28.377C38.7518 28.377 38.1093 29.0251 38.1093 29.8246C38.1093 30.6241 38.7518 31.2722 39.5443 31.2722Z" fill="white"/>
<path d="M63.1242 33.1805C64.3961 33.9865 64.9669 35.4177 64.9669 35.4177C64.9669 35.4177 63.4992 35.5329 62.2436 34.7268C60.988 33.9207 60.1563 32.9173 60.4009 32.4896C60.6292 32.0619 61.8522 32.358 63.1242 33.1805Z" fill="black"/>
<path d="M63.1079 33.164C62.6187 32.8515 62.1295 32.6212 61.7055 32.4731L61.8197 33.2792L64.9506 35.4013C64.9506 35.4013 64.3798 33.9701 63.1079 33.164Z" fill="black"/>
<path d="M63.5319 29.0515C65.6355 28.0151 68 28.3934 68 28.3934C68 28.3934 66.9727 30.4497 64.8691 31.5026C62.7655 32.5389 60.776 32.8351 60.401 32.1606C60.0422 31.4861 61.4446 30.0878 63.5319 29.0515Z" fill="black"/>
<path d="M63.5319 29.0514C63.0753 29.2817 62.6676 29.512 62.2762 29.7588L61.7055 31.7493L67.8369 28.6402C67.9348 28.4757 67.9837 28.377 67.9837 28.377C67.9837 28.377 65.6355 28.0151 63.5319 29.0514Z" fill="black"/>
<path d="M42.8058 69.0918L44.9583 64.5514C45.5127 63.3835 45.9693 62.1497 46.2791 60.8995L47.7957 55.076C48.0892 54.2535 48.66 54.4674 48.66 54.4674L50.5189 55.0596L52.3779 55.6518C52.3779 55.6518 52.965 55.7998 52.6878 56.6224L50.1602 62.1168C49.6221 63.3012 49.1818 64.535 48.872 65.7852L47.6815 70.6381C47.6815 70.6381 47.5674 71.1481 46.9803 70.9671C46.3933 70.7862 45.0561 70.3584 45.0561 70.3584C45.0561 70.3584 43.719 69.9307 43.1319 69.7498C42.5449 69.5688 42.8058 69.0918 42.8058 69.0918Z" fill="black"/>
<path d="M63.8418 25.3501L61.3142 30.8446C60.776 32.029 60.3358 33.2628 60.0259 34.513L58.8355 39.3659C58.8355 39.3659 58.7214 39.8758 58.1343 39.6949C57.5473 39.5139 56.2101 39.0862 56.2101 39.0862C56.2101 39.0862 54.8729 38.6585 54.2859 38.4775C53.6988 38.2966 53.9434 37.8195 53.9434 37.8195L56.0959 33.2792C56.6504 32.1112 57.107 30.8775 57.4168 29.6272L58.9334 23.8038C59.2269 22.9812 59.7976 23.1951 59.7976 23.1951L61.6566 23.7873L63.5156 24.3795C63.5482 24.3795 64.1353 24.5276 63.8418 25.3501Z" fill="black"/>
<path d="M56.3569 45.1235L55.7535 46.4395C55.2154 47.624 54.7751 48.8578 54.4652 50.108L53.2748 54.9609C53.2748 54.9609 53.1607 55.4708 52.5736 55.2899C51.9866 55.1089 50.6494 54.6812 50.6494 54.6812C50.6494 54.6812 49.3122 54.2535 48.7252 54.0725C48.1381 53.8916 48.3828 53.4145 48.3828 53.4145L50.5353 48.8742C51.0897 47.7062 51.5463 46.4724 51.8561 45.2222L53.3727 39.3988C53.6662 38.5762 54.237 38.7901 54.237 38.7901L56.0959 39.3823L57.9549 39.9745C57.9549 39.9745 58.542 40.1226 58.2648 40.9451L56.9765 43.7581" fill="black"/>
<path d="M63.5482 24.3795L61.6892 23.7873L56.2264 39.0862C56.6341 39.2178 57.7103 39.5632 58.1506 39.6948C58.7377 39.8758 58.8518 39.3658 58.8518 39.3658L60.0422 34.513C60.352 33.2627 60.776 32.029 61.3305 30.8445L63.858 25.3501C64.1353 24.5276 63.5482 24.3795 63.5482 24.3795Z" fill="black"/>
<path d="M42.8058 69.0917L44.9583 64.5514C45.5127 63.3834 45.9693 62.1497 46.2791 60.8994L47.7957 55.076C48.0892 54.2535 48.66 54.4673 48.66 54.4673L50.5189 55.0595L52.3779 55.6517C52.3779 55.6517 52.965 55.7998 52.6878 56.6223L50.1602 62.1168C49.6221 63.3012 49.1818 64.535 48.872 65.7852L47.6815 70.6381C47.6815 70.6381 47.5674 71.148 46.9803 70.9671C46.3933 70.7861 45.0561 70.3584 45.0561 70.3584C45.0561 70.3584 43.719 69.9307 43.1319 69.7498C42.5449 69.5688 42.8058 69.0917 42.8058 69.0917Z" fill="black"/>
<path d="M57.9875 39.9745L56.1285 39.3823L49.3774 54.2699C49.8177 54.4015 52.1985 55.1582 52.5899 55.2898C53.177 55.4708 53.2911 54.9608 53.2911 54.9608L54.4815 50.108C54.7914 48.8577 55.2153 47.624 55.7698 46.4395L56.3731 45.1235L57.0091 43.7581L58.2974 40.9451C58.5746 40.1226 57.9875 39.9745 57.9875 39.9745Z" fill="black"/>
<path d="M18.4758 48.1833C9.49062 44.959 3.47336 37.474 1.35345 28.9692C1.56544 42.5737 12.5563 53.5461 26.0911 53.5461C31.9127 53.5461 36.8374 51.1937 41.0609 47.8049C35.3045 50.4534 27.787 51.5062 18.4758 48.1833Z" fill="white"/>
<path d="M53.5846 40.8628C51.5299 39.7606 49.0513 39.629 46.8498 42.1295C41.4848 48.2162 34.799 53.4638 26.1074 53.4638C12.4422 53.4638 1.35344 42.294 1.35344 28.4921C1.35344 28.4263 1.35344 28.377 1.35344 28.3112C-3.13097 41.8992 3.66903 57.8561 17.9702 62.9722C42.6426 71.8061 55.5741 48.1504 55.1501 48.9564C55.1501 48.9729 58.6561 43.5607 53.5846 40.8628Z" fill="black"/>
</g>
<defs>
<clipPath id="clip0">
<rect width="68" height="71" fill="white"/>
</clipPath>
</defs>
</svg>
