<svg width="295" height="71" viewBox="0 0 295 71" fill="none" xmlns="http://www.w3.org/2000/svg">
<g clip-path="url(#clip0)">
<path d="M57.7756 35.9771C57.7756 51.9504 44.9257 64.5514 29.0916 64.5514C13.2576 64.5514 0.424011 51.9504 0.424011 35.9771C0.424011 20.0037 13.2576 7.04077 29.0916 7.04077C44.9257 7.04077 57.7756 19.9873 57.7756 35.9771Z" fill="white"/>
<path d="M5.59326 8.45551C6.76736 4.88577 9.00141 2.07275 12.6216 0.592209C17.5626 -1.41474 21.5741 1.80954 20.8729 7.12302C20.7587 7.94555 20.4163 8.48841 19.5683 8.78452C15.4427 10.1993 11.8225 12.4694 8.7242 15.595C7.43595 16.8946 6.21292 16.6314 5.4628 14.9205C4.54961 12.7984 4.94098 10.6928 5.59326 8.45551Z" fill="black"/>
<path d="M61.4446 20.4643C61.8686 16.7136 61.0206 13.2261 58.3463 10.3473C54.6935 6.43211 49.7199 7.63299 48.1381 12.7491C47.8935 13.5551 47.9751 14.1803 48.6273 14.8054C51.7909 17.8487 54.1065 21.4513 55.623 25.5968C56.259 27.3241 57.4657 27.6038 58.8518 26.37C60.564 24.8401 61.1021 22.7509 61.4446 20.4643Z" fill="black"/>
<path d="M33.788 38.9875C33.3477 40.32 29.8743 41.1589 28.5698 40.9122C27.2652 40.6654 24.33 38.5762 24.4278 37.1779C24.5256 35.829 25.9117 34.9242 29.5808 35.6316C33.2825 36.3389 34.212 37.6879 33.788 38.9875Z" fill="#231F20"/>
<path d="M19.2384 35.0012C19.5029 33.7669 17.7978 32.3477 15.4299 31.8313C13.062 31.3149 10.928 31.8968 10.6635 33.1312C10.399 34.3655 12.1041 35.7847 14.472 36.3011C16.8399 36.8175 18.9739 36.2356 19.2384 35.0012Z" fill="#FDFFFF"/>
<path d="M32.6465 47.6568C30.0863 47.6568 28.048 44.3174 27.6403 43.1494C27.5261 42.8533 27.6892 42.5243 27.9827 42.4092C28.2763 42.294 28.6024 42.4585 28.7165 42.7546C29.1079 43.8568 30.8691 46.5711 32.7281 46.5053C33.5108 46.4724 35.435 46.127 36.2014 43.6429C36.2993 43.3468 36.6091 43.1659 36.9189 43.2646C37.2125 43.3633 37.3918 43.6758 37.294 43.9884C36.2667 47.262 33.576 47.6239 32.777 47.6568C32.7281 47.6568 32.6791 47.6568 32.6465 47.6568Z" fill="black"/>
<path d="M23.482 45.946C23.0417 45.946 22.6177 45.8637 22.2101 45.6992C21.4762 45.3867 19.0791 44.0706 19.2911 40.6325C19.3074 40.32 19.5846 40.0732 19.8945 40.0896C20.2043 40.1061 20.4489 40.3858 20.4326 40.6983C20.2695 43.3139 21.9328 44.3174 22.6667 44.6299C24.3626 45.3702 26.988 43.462 27.7381 42.5737C27.9501 42.3269 28.3089 42.3104 28.5372 42.5079C28.7818 42.7217 28.7981 43.0836 28.6024 43.3139C27.9175 44.12 25.6182 45.946 23.482 45.946Z" fill="black"/>
<path d="M47.6736 41.0083C47.9252 39.7712 46.2053 38.3701 43.8321 37.8789C41.4589 37.3876 39.331 37.9923 39.0794 39.2294C38.8278 40.4665 40.5477 41.8676 42.9209 42.3588C45.2941 42.85 47.4219 42.2454 47.6736 41.0083Z" fill="#FDFFFF"/>
<path d="M12.4422 25.5475C14.448 23.0799 17.4811 21.2046 21.3621 21.1388C25.5204 21.073 27.999 24.7743 26.4499 28.5086C25.6672 30.4004 23.4005 31.7657 21.248 31.4038C19.3401 31.0913 17.4974 31.1735 15.6384 31.6341C14.0892 32.0125 12.8173 31.5519 11.9041 30.2359C11.0561 29.0021 11.1377 27.538 12.4422 25.5475Z" fill="black"/>
<path d="M22.5852 27.6696C23.3777 27.6696 24.0202 27.0215 24.0202 26.222C24.0202 25.4224 23.3777 24.7743 22.5852 24.7743C21.7926 24.7743 21.1501 25.4224 21.1501 26.222C21.1501 27.0215 21.7926 27.6696 22.5852 27.6696Z" fill="white"/>
<path d="M49.0839 33.3285C48.236 30.2523 46.2139 27.3077 42.6753 25.6626C38.9084 23.9024 35.1415 26.2713 35.0763 30.3345C35.0436 32.3908 36.5765 34.5458 38.6801 35.1052C40.5554 35.5987 42.2024 36.4212 43.7189 37.6056C44.9746 38.5762 46.3281 38.6749 47.6978 37.8524C48.9698 37.0628 49.4916 35.6809 49.0839 33.3285Z" fill="black"/>
<path d="M39.5443 31.2722C40.3369 31.2722 40.9793 30.6241 40.9793 29.8246C40.9793 29.0251 40.3369 28.377 39.5443 28.377C38.7518 28.377 38.1093 29.0251 38.1093 29.8246C38.1093 30.6241 38.7518 31.2722 39.5443 31.2722Z" fill="white"/>
<path d="M63.1242 33.1805C64.3961 33.9865 64.9669 35.4177 64.9669 35.4177C64.9669 35.4177 63.4992 35.5329 62.2436 34.7268C60.988 33.9207 60.1563 32.9173 60.4009 32.4896C60.6292 32.0619 61.8522 32.358 63.1242 33.1805Z" fill="black"/>
<path d="M63.1079 33.164C62.6187 32.8515 62.1295 32.6212 61.7055 32.4731L61.8197 33.2792L64.9506 35.4013C64.9506 35.4013 64.3798 33.9701 63.1079 33.164Z" fill="black"/>
<path d="M63.5319 29.0515C65.6355 28.0151 68 28.3934 68 28.3934C68 28.3934 66.9727 30.4497 64.8691 31.5026C62.7655 32.5389 60.776 32.8351 60.401 32.1606C60.0422 31.4861 61.4446 30.0878 63.5319 29.0515Z" fill="black"/>
<path d="M63.5319 29.0514C63.0753 29.2817 62.6676 29.512 62.2762 29.7588L61.7055 31.7493L67.8369 28.6402C67.9348 28.4757 67.9837 28.377 67.9837 28.377C67.9837 28.377 65.6355 28.0151 63.5319 29.0514Z" fill="black"/>
<path d="M42.8058 69.0918L44.9583 64.5514C45.5127 63.3835 45.9693 62.1497 46.2791 60.8995L47.7957 55.076C48.0892 54.2535 48.66 54.4674 48.66 54.4674L50.5189 55.0596L52.3779 55.6518C52.3779 55.6518 52.965 55.7998 52.6878 56.6224L50.1602 62.1168C49.6221 63.3012 49.1818 64.535 48.872 65.7852L47.6815 70.6381C47.6815 70.6381 47.5674 71.1481 46.9803 70.9671C46.3933 70.7862 45.0561 70.3584 45.0561 70.3584C45.0561 70.3584 43.719 69.9307 43.1319 69.7498C42.5449 69.5688 42.8058 69.0918 42.8058 69.0918Z" fill="black"/>
<path d="M63.8418 25.3501L61.3142 30.8446C60.776 32.029 60.3358 33.2628 60.0259 34.513L58.8355 39.3659C58.8355 39.3659 58.7214 39.8758 58.1343 39.6949C57.5473 39.5139 56.2101 39.0862 56.2101 39.0862C56.2101 39.0862 54.8729 38.6585 54.2859 38.4775C53.6988 38.2966 53.9434 37.8195 53.9434 37.8195L56.0959 33.2792C56.6504 32.1112 57.107 30.8775 57.4168 29.6272L58.9334 23.8038C59.2269 22.9812 59.7976 23.1951 59.7976 23.1951L61.6566 23.7873L63.5156 24.3795C63.5482 24.3795 64.1353 24.5276 63.8418 25.3501Z" fill="black"/>
<path d="M56.3569 45.1235L55.7535 46.4395C55.2154 47.624 54.7751 48.8578 54.4652 50.108L53.2748 54.9609C53.2748 54.9609 53.1607 55.4708 52.5736 55.2899C51.9866 55.1089 50.6494 54.6812 50.6494 54.6812C50.6494 54.6812 49.3122 54.2535 48.7252 54.0725C48.1381 53.8916 48.3828 53.4145 48.3828 53.4145L50.5353 48.8742C51.0897 47.7062 51.5463 46.4724 51.8561 45.2222L53.3727 39.3988C53.6662 38.5762 54.237 38.7901 54.237 38.7901L56.0959 39.3823L57.9549 39.9745C57.9549 39.9745 58.542 40.1226 58.2648 40.9451L56.9765 43.7581" fill="black"/>
<path d="M63.5482 24.3795L61.6892 23.7873L56.2264 39.0862C56.6341 39.2178 57.7103 39.5632 58.1506 39.6948C58.7377 39.8758 58.8518 39.3658 58.8518 39.3658L60.0422 34.513C60.352 33.2627 60.776 32.029 61.3305 30.8445L63.858 25.3501C64.1353 24.5276 63.5482 24.3795 63.5482 24.3795Z" fill="black"/>
<path d="M42.8058 69.0917L44.9583 64.5514C45.5127 63.3834 45.9693 62.1497 46.2791 60.8994L47.7957 55.076C48.0892 54.2535 48.66 54.4673 48.66 54.4673L50.5189 55.0595L52.3779 55.6517C52.3779 55.6517 52.965 55.7998 52.6878 56.6223L50.1602 62.1168C49.6221 63.3012 49.1818 64.535 48.872 65.7852L47.6815 70.6381C47.6815 70.6381 47.5674 71.148 46.9803 70.9671C46.3933 70.7861 45.0561 70.3584 45.0561 70.3584C45.0561 70.3584 43.719 69.9307 43.1319 69.7498C42.5449 69.5688 42.8058 69.0917 42.8058 69.0917Z" fill="black"/>
<path d="M57.9875 39.9745L56.1285 39.3823L49.3774 54.2699C49.8177 54.4015 52.1985 55.1582 52.5899 55.2898C53.177 55.4708 53.2911 54.9608 53.2911 54.9608L54.4815 50.108C54.7914 48.8577 55.2153 47.624 55.7698 46.4395L56.3731 45.1235L57.0091 43.7581L58.2974 40.9451C58.5746 40.1226 57.9875 39.9745 57.9875 39.9745Z" fill="black"/>
<path d="M18.4758 48.1833C9.49062 44.959 3.47336 37.474 1.35345 28.9692C1.56544 42.5737 12.5563 53.5461 26.0911 53.5461C31.9127 53.5461 36.8374 51.1937 41.0609 47.8049C35.3045 50.4534 27.787 51.5062 18.4758 48.1833Z" fill="white"/>
<path d="M53.5846 40.8628C51.5299 39.7606 49.0513 39.629 46.8498 42.1295C41.4848 48.2162 34.799 53.4638 26.1074 53.4638C12.4422 53.4638 1.35344 42.294 1.35344 28.4921C1.35344 28.4263 1.35344 28.377 1.35344 28.3112C-3.13097 41.8992 3.66903 57.8561 17.9702 62.9722C42.6426 71.8061 55.5741 48.1504 55.1501 48.9564C55.1501 48.9729 58.6561 43.5607 53.5846 40.8628Z" fill="black"/>
</g>
<path d="M117.328 27.576C117.328 28.552 117.104 29.448 116.656 30.264C116.208 31.064 115.52 31.712 114.592 32.208C113.664 32.704 112.512 32.952 111.136 32.952H108.592V39H104.488V22.152H111.136C112.48 22.152 113.616 22.384 114.544 22.848C115.472 23.312 116.168 23.952 116.632 24.768C117.096 25.584 117.328 26.52 117.328 27.576ZM110.824 29.688C111.608 29.688 112.192 29.504 112.576 29.136C112.96 28.768 113.152 28.248 113.152 27.576C113.152 26.904 112.96 26.384 112.576 26.016C112.192 25.648 111.608 25.464 110.824 25.464H108.592V29.688H110.824Z" fill="black"/>
<path d="M118.649 32.28C118.649 30.904 118.905 29.696 119.417 28.656C119.945 27.616 120.657 26.816 121.553 26.256C122.449 25.696 123.449 25.416 124.553 25.416C125.497 25.416 126.321 25.608 127.025 25.992C127.745 26.376 128.297 26.88 128.681 27.504V25.608H132.785V39H128.681V37.104C128.281 37.728 127.721 38.232 127.001 38.616C126.297 39 125.473 39.192 124.529 39.192C123.441 39.192 122.449 38.912 121.553 38.352C120.657 37.776 119.945 36.968 119.417 35.928C118.905 34.872 118.649 33.656 118.649 32.28ZM128.681 32.304C128.681 31.28 128.393 30.472 127.817 29.88C127.257 29.288 126.569 28.992 125.753 28.992C124.937 28.992 124.241 29.288 123.665 29.88C123.105 30.456 122.825 31.256 122.825 32.28C122.825 33.304 123.105 34.12 123.665 34.728C124.241 35.32 124.937 35.616 125.753 35.616C126.569 35.616 127.257 35.32 127.817 34.728C128.393 34.136 128.681 33.328 128.681 32.304Z" fill="black"/>
<path d="M143.914 25.464C145.482 25.464 146.73 25.976 147.658 27C148.602 28.008 149.074 29.4 149.074 31.176V39H144.994V31.728C144.994 30.832 144.762 30.136 144.298 29.64C143.834 29.144 143.21 28.896 142.426 28.896C141.642 28.896 141.018 29.144 140.554 29.64C140.09 30.136 139.858 30.832 139.858 31.728V39H135.754V25.608H139.858V27.384C140.274 26.792 140.834 26.328 141.538 25.992C142.242 25.64 143.034 25.464 143.914 25.464Z" fill="black"/>
<path d="M151.11 32.28C151.11 30.904 151.366 29.696 151.878 28.656C152.406 27.616 153.118 26.816 154.014 26.256C154.91 25.696 155.91 25.416 157.014 25.416C157.894 25.416 158.694 25.6 159.414 25.968C160.15 26.336 160.726 26.832 161.142 27.456V21.24H165.246V39H161.142V37.08C160.758 37.72 160.206 38.232 159.486 38.616C158.782 39 157.958 39.192 157.014 39.192C155.91 39.192 154.91 38.912 154.014 38.352C153.118 37.776 152.406 36.968 151.878 35.928C151.366 34.872 151.11 33.656 151.11 32.28ZM161.142 32.304C161.142 31.28 160.854 30.472 160.278 29.88C159.718 29.288 159.03 28.992 158.214 28.992C157.398 28.992 156.702 29.288 156.126 29.88C155.566 30.456 155.286 31.256 155.286 32.28C155.286 33.304 155.566 34.12 156.126 34.728C156.702 35.32 157.398 35.616 158.214 35.616C159.03 35.616 159.718 35.32 160.278 34.728C160.854 34.136 161.142 33.328 161.142 32.304Z" fill="black"/>
<path d="M167.399 32.28C167.399 30.904 167.655 29.696 168.167 28.656C168.695 27.616 169.407 26.816 170.303 26.256C171.199 25.696 172.199 25.416 173.303 25.416C174.247 25.416 175.071 25.608 175.775 25.992C176.495 26.376 177.047 26.88 177.431 27.504V25.608H181.535V39H177.431V37.104C177.031 37.728 176.471 38.232 175.751 38.616C175.047 39 174.223 39.192 173.279 39.192C172.191 39.192 171.199 38.912 170.303 38.352C169.407 37.776 168.695 36.968 168.167 35.928C167.655 34.872 167.399 33.656 167.399 32.28ZM177.431 32.304C177.431 31.28 177.143 30.472 176.567 29.88C176.007 29.288 175.319 28.992 174.503 28.992C173.687 28.992 172.991 29.288 172.415 29.88C171.855 30.456 171.575 31.256 171.575 32.28C171.575 33.304 171.855 34.12 172.415 34.728C172.991 35.32 173.687 35.616 174.503 35.616C175.319 35.616 176.007 35.32 176.567 34.728C177.143 34.136 177.431 33.328 177.431 32.304Z" fill="black"/>
<path d="M196.566 39.168C195.462 39.168 194.47 38.976 193.59 38.592C192.726 38.192 192.046 37.648 191.55 36.96C191.054 36.256 190.798 35.448 190.782 34.536H193.11C193.19 35.32 193.51 35.984 194.07 36.528C194.646 37.056 195.478 37.32 196.566 37.32C197.606 37.32 198.422 37.064 199.014 36.552C199.622 36.024 199.926 35.352 199.926 34.536C199.926 33.896 199.75 33.376 199.398 32.976C199.046 32.576 198.606 32.272 198.078 32.064C197.55 31.856 196.838 31.632 195.942 31.392C194.838 31.104 193.95 30.816 193.278 30.528C192.622 30.24 192.054 29.792 191.574 29.184C191.11 28.56 190.878 27.728 190.878 26.688C190.878 25.776 191.11 24.968 191.574 24.264C192.038 23.56 192.686 23.016 193.518 22.632C194.366 22.248 195.334 22.056 196.422 22.056C197.99 22.056 199.27 22.448 200.262 23.232C201.27 24.016 201.838 25.056 201.966 26.352H199.566C199.486 25.712 199.15 25.152 198.558 24.672C197.966 24.176 197.182 23.928 196.206 23.928C195.294 23.928 194.55 24.168 193.974 24.648C193.398 25.112 193.11 25.768 193.11 26.616C193.11 27.224 193.278 27.72 193.614 28.104C193.966 28.488 194.39 28.784 194.886 28.992C195.398 29.184 196.11 29.408 197.022 29.664C198.126 29.968 199.014 30.272 199.686 30.576C200.358 30.864 200.934 31.32 201.414 31.944C201.894 32.552 202.134 33.384 202.134 34.44C202.134 35.256 201.918 36.024 201.486 36.744C201.054 37.464 200.414 38.048 199.566 38.496C198.718 38.944 197.718 39.168 196.566 39.168Z" fill="black"/>
<path d="M222.868 25.848L218.764 39H216.508L213.34 28.56L210.172 39H207.916L203.788 25.848H206.02L209.044 36.888L212.308 25.848H214.54L217.732 36.912L220.708 25.848H222.868Z" fill="black"/>
<path d="M224.22 32.376C224.22 31.032 224.492 29.856 225.036 28.848C225.58 27.824 226.324 27.032 227.268 26.472C228.228 25.912 229.292 25.632 230.46 25.632C231.612 25.632 232.612 25.88 233.46 26.376C234.308 26.872 234.94 27.496 235.356 28.248V25.848H237.564V39H235.356V36.552C234.924 37.32 234.276 37.96 233.412 38.472C232.564 38.968 231.572 39.216 230.436 39.216C229.268 39.216 228.212 38.928 227.268 38.352C226.324 37.776 225.58 36.968 225.036 35.928C224.492 34.888 224.22 33.704 224.22 32.376ZM235.356 32.4C235.356 31.408 235.156 30.544 234.756 29.808C234.356 29.072 233.812 28.512 233.124 28.128C232.452 27.728 231.708 27.528 230.892 27.528C230.076 27.528 229.332 27.72 228.66 28.104C227.988 28.488 227.452 29.048 227.052 29.784C226.652 30.52 226.452 31.384 226.452 32.376C226.452 33.384 226.652 34.264 227.052 35.016C227.452 35.752 227.988 36.32 228.66 36.72C229.332 37.104 230.076 37.296 230.892 37.296C231.708 37.296 232.452 37.104 233.124 36.72C233.812 36.32 234.356 35.752 234.756 35.016C235.156 34.264 235.356 33.392 235.356 32.4Z" fill="black"/>
<path d="M243.438 28.272C243.87 27.52 244.51 26.896 245.358 26.4C246.222 25.888 247.222 25.632 248.358 25.632C249.526 25.632 250.582 25.912 251.526 26.472C252.486 27.032 253.238 27.824 253.782 28.848C254.326 29.856 254.598 31.032 254.598 32.376C254.598 33.704 254.326 34.888 253.782 35.928C253.238 36.968 252.486 37.776 251.526 38.352C250.582 38.928 249.526 39.216 248.358 39.216C247.238 39.216 246.246 38.968 245.382 38.472C244.534 37.96 243.886 37.328 243.438 36.576V45.24H241.254V25.848H243.438V28.272ZM252.366 32.376C252.366 31.384 252.166 30.52 251.766 29.784C251.366 29.048 250.822 28.488 250.134 28.104C249.462 27.72 248.718 27.528 247.902 27.528C247.102 27.528 246.358 27.728 245.67 28.128C244.998 28.512 244.454 29.08 244.038 29.832C243.638 30.568 243.438 31.424 243.438 32.4C243.438 33.392 243.638 34.264 244.038 35.016C244.454 35.752 244.998 36.32 245.67 36.72C246.358 37.104 247.102 37.296 247.902 37.296C248.718 37.296 249.462 37.104 250.134 36.72C250.822 36.32 251.366 35.752 251.766 35.016C252.166 34.264 252.366 33.384 252.366 32.376Z" fill="black"/>
<path d="M108.43 54.07C108.43 54.65 108.23 55.1333 107.83 55.52C107.437 55.9 106.833 56.09 106.02 56.09H104.68V59H103.77V52.03H106.02C106.807 52.03 107.403 52.22 107.81 52.6C108.223 52.98 108.43 53.47 108.43 54.07ZM106.02 55.34C106.527 55.34 106.9 55.23 107.14 55.01C107.38 54.79 107.5 54.4767 107.5 54.07C107.5 53.21 107.007 52.78 106.02 52.78H104.68V55.34H106.02Z" fill="black"/>
<path d="M116.421 59.07C115.774 59.07 115.184 58.92 114.651 58.62C114.118 58.3133 113.694 57.89 113.381 57.35C113.074 56.8033 112.921 56.19 112.921 55.51C112.921 54.83 113.074 54.22 113.381 53.68C113.694 53.1333 114.118 52.71 114.651 52.41C115.184 52.1033 115.774 51.95 116.421 51.95C117.074 51.95 117.668 52.1033 118.201 52.41C118.734 52.71 119.154 53.13 119.461 53.67C119.768 54.21 119.921 54.8233 119.921 55.51C119.921 56.1967 119.768 56.81 119.461 57.35C119.154 57.89 118.734 58.3133 118.201 58.62C117.668 58.92 117.074 59.07 116.421 59.07ZM116.421 58.28C116.908 58.28 117.344 58.1667 117.731 57.94C118.124 57.7133 118.431 57.39 118.651 56.97C118.878 56.55 118.991 56.0633 118.991 55.51C118.991 54.95 118.878 54.4633 118.651 54.05C118.431 53.63 118.128 53.3067 117.741 53.08C117.354 52.8533 116.914 52.74 116.421 52.74C115.928 52.74 115.488 52.8533 115.101 53.08C114.714 53.3067 114.408 53.63 114.181 54.05C113.961 54.4633 113.851 54.95 113.851 55.51C113.851 56.0633 113.961 56.55 114.181 56.97C114.408 57.39 114.714 57.7133 115.101 57.94C115.494 58.1667 115.934 58.28 116.421 58.28Z" fill="black"/>
<path d="M133.582 52.03L131.562 59H130.542L128.922 53.39L127.242 59L126.232 59.01L124.282 52.03H125.252L126.772 57.94L128.452 52.03H129.472L131.072 57.92L132.602 52.03H133.582Z" fill="black"/>
<path d="M139.188 52.77V55.1H141.728V55.85H139.188V58.25H142.028V59H138.278V52.02H142.028V52.77H139.188Z" fill="black"/>
<path d="M150.775 59L149.115 56.15H148.015V59H147.105V52.03H149.355C149.882 52.03 150.325 52.12 150.685 52.3C151.052 52.48 151.325 52.7233 151.505 53.03C151.685 53.3367 151.775 53.6867 151.775 54.08C151.775 54.56 151.635 54.9833 151.355 55.35C151.082 55.7167 150.669 55.96 150.115 56.08L151.865 59H150.775ZM148.015 55.42H149.355C149.849 55.42 150.219 55.3 150.465 55.06C150.712 54.8133 150.835 54.4867 150.835 54.08C150.835 53.6667 150.712 53.3467 150.465 53.12C150.225 52.8933 149.855 52.78 149.355 52.78H148.015V55.42Z" fill="black"/>
<path d="M157.799 52.77V55.1H160.339V55.85H157.799V58.25H160.639V59H156.889V52.02H160.639V52.77H157.799Z" fill="black"/>
<path d="M167.886 52.03C168.646 52.03 169.303 52.1733 169.856 52.46C170.416 52.74 170.843 53.1433 171.136 53.67C171.436 54.1967 171.586 54.8167 171.586 55.53C171.586 56.2433 171.436 56.8633 171.136 57.39C170.843 57.91 170.416 58.31 169.856 58.59C169.303 58.8633 168.646 59 167.886 59H165.716V52.03H167.886ZM167.886 58.25C168.786 58.25 169.473 58.0133 169.946 57.54C170.419 57.06 170.656 56.39 170.656 55.53C170.656 54.6633 170.416 53.9867 169.936 53.5C169.463 53.0133 168.779 52.77 167.886 52.77H166.626V58.25H167.886Z" fill="black"/>
<path d="M186.342 55.41C186.596 55.45 186.826 55.5533 187.032 55.72C187.246 55.8867 187.412 56.0933 187.532 56.34C187.659 56.5867 187.722 56.85 187.722 57.13C187.722 57.4833 187.632 57.8033 187.452 58.09C187.272 58.37 187.009 58.5933 186.662 58.76C186.322 58.92 185.919 59 185.452 59H182.852V52.03H185.352C185.826 52.03 186.229 52.11 186.562 52.27C186.896 52.4233 187.146 52.6333 187.312 52.9C187.479 53.1667 187.562 53.4667 187.562 53.8C187.562 54.2133 187.449 54.5567 187.222 54.83C187.002 55.0967 186.709 55.29 186.342 55.41ZM183.762 55.04H185.292C185.719 55.04 186.049 54.94 186.282 54.74C186.516 54.54 186.632 54.2633 186.632 53.91C186.632 53.5567 186.516 53.28 186.282 53.08C186.049 52.88 185.712 52.78 185.272 52.78H183.762V55.04ZM185.372 58.25C185.826 58.25 186.179 58.1433 186.432 57.93C186.686 57.7167 186.812 57.42 186.812 57.04C186.812 56.6533 186.679 56.35 186.412 56.13C186.146 55.9033 185.789 55.79 185.342 55.79H183.762V58.25H185.372Z" fill="black"/>
<path d="M197.565 52.03L195.295 56.37V59H194.385V56.37L192.105 52.03H193.115L194.835 55.56L196.555 52.03H197.565Z" fill="black"/>
<path d="M212.711 57.45H209.671L209.111 59H208.151L210.671 52.07H211.721L214.231 59H213.271L212.711 57.45ZM212.451 56.71L211.191 53.19L209.931 56.71H212.451Z" fill="black"/>
<path d="M224.789 52.03L222.159 59H221.109L218.479 52.03H219.449L221.639 58.04L223.829 52.03H224.789Z" fill="black"/>
<path d="M233.607 57.45H230.567L230.007 59H229.047L231.567 52.07H232.617L235.127 59H234.167L233.607 57.45ZM233.347 56.71L232.087 53.19L230.827 56.71H233.347Z" fill="black"/>
<path d="M240.835 58.26H243.275V59H239.925V52.03H240.835V58.26Z" fill="black"/>
<path d="M252.062 57.45H249.022L248.462 59H247.502L250.022 52.07H251.072L253.582 59H252.622L252.062 57.45ZM251.802 56.71L250.542 53.19L249.282 56.71H251.802Z" fill="black"/>
<path d="M263.86 59H262.95L259.29 53.45V59H258.38V52.02H259.29L262.95 57.56V52.02H263.86V59Z" fill="black"/>
<path d="M268.771 55.51C268.771 54.83 268.925 54.22 269.231 53.68C269.538 53.1333 269.955 52.7067 270.481 52.4C271.015 52.0933 271.605 51.94 272.251 51.94C273.011 51.94 273.675 52.1233 274.241 52.49C274.808 52.8567 275.221 53.3767 275.481 54.05H274.391C274.198 53.63 273.918 53.3067 273.551 53.08C273.191 52.8533 272.758 52.74 272.251 52.74C271.765 52.74 271.328 52.8533 270.941 53.08C270.555 53.3067 270.251 53.63 270.031 54.05C269.811 54.4633 269.701 54.95 269.701 55.51C269.701 56.0633 269.811 56.55 270.031 56.97C270.251 57.3833 270.555 57.7033 270.941 57.93C271.328 58.1567 271.765 58.27 272.251 58.27C272.758 58.27 273.191 58.16 273.551 57.94C273.918 57.7133 274.198 57.39 274.391 56.97H275.481C275.221 57.6367 274.808 58.1533 274.241 58.52C273.675 58.88 273.011 59.06 272.251 59.06C271.605 59.06 271.015 58.91 270.481 58.61C269.955 58.3033 269.538 57.88 269.231 57.34C268.925 56.8 268.771 56.19 268.771 55.51Z" fill="black"/>
<path d="M285.906 52.03V59H284.996V55.84H281.446V59H280.536V52.03H281.446V55.09H284.996V52.03H285.906Z" fill="black"/>
<path d="M292.07 52.77V55.1H294.61V55.85H292.07V58.25H294.91V59H291.16V52.02H294.91V52.77H292.07Z" fill="black"/>
<defs>
<clipPath id="clip0">
<rect width="68" height="71" fill="white"/>
</clipPath>
</defs>
</svg>
