<svg width="25" height="25" viewBox="0 0 25 25" fill="none" xmlns="http://www.w3.org/2000/svg">
<path d="M16.1622 12.5C14.143 12.5 12.5001 14.1429 12.5001 16.1621V16.8945H19.8243V16.1621C19.8243 14.1429 18.1814 12.5 16.1622 12.5Z" fill="black"/>
<path d="M7.37317 25H25.0001V5.85938H7.37317V25ZM21.2892 22.7539H11.0353V21.2891H21.2892V22.7539ZM9.57043 16.8945H11.0353V16.1621C11.0353 13.5862 12.9518 11.4684 15.4298 11.1092V9.57031H16.8947V11.1092C19.3727 11.4684 21.2892 13.5862 21.2892 16.1621V16.8945H22.754V18.3594H9.57043V16.8945Z" fill="black"/>
<path d="M14.5079 2L9.00012 4.75391H14.5079V2Z" fill="black"/>
<path d="M5.90833 4.39453L14.6974 0H0.00012207V19.0918H5.90833V4.39453Z" fill="black"/>
</svg>
