<svg width="25" height="23" viewBox="0 0 25 23" fill="none" xmlns="http://www.w3.org/2000/svg">
<path d="M15.402 9.30234V4.14116C15.402 3.70348 15.0472 3.34863 14.6095 3.34863H7.67237V0.793401C7.67237 0.0941386 6.82843 -0.2627 6.3269 0.225649L0.239609 6.15395C-0.0800784 6.46526 -0.0793354 6.97888 0.239609 7.2895L6.3269 13.2179C6.82778 13.7057 7.67237 13.3501 7.67237 12.6501V10.0949H14.6095C15.0472 10.0949 15.402 9.74001 15.402 9.30234Z" fill="black"/>
<path d="M24.7606 15.163L18.6734 9.23462C18.1725 8.74687 17.3279 9.10242 17.3279 9.80238V12.3576H10.3908C9.95307 12.3576 9.59827 12.7125 9.59827 13.1501V18.3113C9.59827 18.749 9.95307 19.1038 10.3908 19.1038H17.3279V21.6591C17.3279 22.3605 18.1748 22.7123 18.6734 22.2268L24.7606 16.2985C25.0803 15.9872 25.0796 15.4736 24.7606 15.163Z" fill="black"/>
</svg>
