<svg width="1702" height="827" viewBox="0 0 1702 827" fill="none" xmlns="http://www.w3.org/2000/svg">
<path d="M708.1 300.5C772.9 300.5 790.9 278 799 188C781 184.4 755.8 175.4 741.4 165.5C738.7 235.7 733.3 245.6 701.8 245.6H562.3C522.7 245.6 515.5 241.1 515.5 216.8V159.2C595.6 141.2 685.6 116 749.5 89L705.4 44C659.5 65.6 586.6 89.9 515.5 108.8V4.39993H452.5V217.7C452.5 284.3 473.2 300.5 556.9 300.5H708.1ZM713.5 615.5C779.2 615.5 799 593 806.2 501.2C788.2 497.6 763 488.6 748.6 477.8C745.9 548.9 739.6 558.8 707.2 558.8H564.1C522.7 558.8 515.5 554.3 515.5 530.9V467C597.4 449 691 422.9 754.9 393.2L711.7 348.2C664 372.5 588.4 397.7 515.5 416.6V314H452.5V530.9C452.5 597.5 474.1 615.5 557.8 615.5H713.5ZM64.6 826.1C111.4 786.5 149.2 723.5 169 662.3L106.9 647C86.2 705.5 47.5 765.8 4.30001 798.2L64.6 826.1ZM262.6 671.3C272.5 719.9 277.9 781.1 278.8 818L342.7 810.8C342.7 773.9 334.6 712.7 323.8 666.8L262.6 671.3ZM119.5 445.4V386H304.9V445.4H119.5ZM304.9 286.1V342.8H119.5V286.1H304.9ZM367 237.5H60.1V617.3H119.5V488.6H304.9V546.2C304.9 556.1 301.3 559.7 289.6 559.7C277 560.6 240.1 560.6 194.2 559.7C201.4 575 209.5 594.8 212.2 611C271.6 611 312.1 610.1 336.4 601.1C359.8 593.9 367 577.7 367 546.2V237.5ZM244.6 62.8999C265.3 82.6999 286 106.1 305.8 130.4C246.4 132.2 187.9 134.9 134.8 136.7C159.1 100.7 184.3 57.4999 205.9 18.8L139.3 0.799927C124 41.2999 96.1 97.1 70.9 138.5C44.8 139.4 21.4 140.3 0.700012 140.3L5.20001 196.1C96.1 192.5 220.3 188 343.6 181.7C352.6 195.2 360.7 208.7 367 220.4L422.8 192.5C398.5 147.5 343.6 82.6999 295.9 36.7999L244.6 62.8999ZM447.1 673.1C466.9 719.9 486.7 780.2 494.8 818L558.7 802.7C551.5 766.7 529 705.5 509.2 661.4L447.1 673.1ZM630.7 671.3C673 718.1 721.6 782.9 740.5 824.3L806.2 799.1C783.7 756.8 734.2 693.8 691 647.9L630.7 671.3Z" fill="black" fill-opacity="0.015"/>
<path d="M1116.7 20.5999C1099.6 53 1076.2 85.4 1050.1 116.9C1026.7 85.4 998.8 53.8999 963.7 23.3L916.9 59.2999C955.6 93.5 985.3 128.6 1008.7 164.6C970.9 204.2 929.5 240.2 887.2 269.9C901.6 282.5 921.4 301.4 930.4 315.8C969.1 288.8 1005.1 257.3 1039.3 223.1C1055.5 260 1064.5 298.7 1070.8 337.4C1030.3 420.2 956.5 507.5 889.9 552.5C906.1 564.2 925 586.7 934.9 602.9C984.4 562.4 1037.5 501.2 1079.8 437.3C1080.7 452.6 1080.7 467.9 1080.7 483.2C1080.7 597.5 1072.6 703.7 1051 731.6C1043.8 741.5 1035.7 746 1022.2 747.8C1003.3 749.6 970 749.6 928.6 746.9C940.3 765.8 947.5 790.1 947.5 810.8C983.5 813.5 1019.5 813.5 1049.2 807.2C1070.8 803.6 1087 793.7 1099.6 778.4C1134.7 729.8 1144.6 611.9 1144.6 484.1C1144.6 376.1 1135.6 271.7 1085.2 174.5C1116.7 137.6 1145.5 98.9 1168 60.2L1116.7 20.5999ZM1404.7 408.5V531.8H1267V408.5H1404.7ZM1604.5 531.8H1465.9V408.5H1604.5V531.8ZM1465.9 717.2V590.3H1604.5V717.2H1465.9ZM1267 590.3H1404.7V717.2H1267V590.3ZM1205.8 823.4H1267V776.6H1604.5V818.9H1668.4V348.2H1205.8V823.4ZM1580.2 130.4V2.59996H1515.4V130.4H1357.9V2.59996H1293.1V130.4H1166.2V191.6H1293.1V308.6H1357.9V191.6H1515.4V308.6H1580.2V191.6H1701.7V130.4H1580.2Z" fill="black" fill-opacity="0.015"/>
</svg>
